# xmcd
#
# Track frame offsets:
#	150
#	12875
#	25727
#	34685
#	52805
#	62985
#	75277
#	85120
#	94907
#	106357
#	123460
#	133225
#	145150
#	154510
#	164847
#	173592
#
# Disc length: 2517 seconds
#
# Revision: 0
# Processed by: cddbd v1.5.2PL0 Copyright (c) Steve Scherf et al.
# Submitted via: SynApp - FreeCDDB Version: 2.5
#
DISCID=c609d310
DTITLE=Gitarrenmusik Martin Kern - 20 Jahre
DYEAR=1997
DGENRE=Volksmusik
TTITLE0=Gitarrenmusik Martin Kern - Im Bräustüberl
TTITLE1=Gitarrenmusik Martin Kern - Roßsteig Ländler
TTITLE2=Gitarrenmusik Martin Kern - Burgstall Polka
TTITLE3=Gitarrenmusik Martin Kern - Im Waldhäusle
TTITLE4=Gitarrenmusik Martin Kern - Ottobeurer Galopp
TTITLE5=Gitarrenmusik Martin Kern - Riedacker Ländler
TTITLE6=Gitarrenmusik Martin Kern - Im Heumoos
TTITLE7=Gitarrenmusik Martin Kern - Langenberger Ländler
TTITLE8=Gitarrenmusik Martin Kern - S´Vogelnestle
TTITLE9=Gitarrenmusik Martin Kern - Stad lustig Nr. 4
TTITLE10=Gitarrenmusik Martin Kern - Hochgrat Boarischer
TTITLE11=Gitarrenmusik Martin Kern - Nachtigall Walzer
TTITLE12=Gitarrenmusik Martin Kern - Im Rohrbachtobel
TTITLE13=Gitarrenmusik Martin Kern - Im Ostertal
TTITLE14=Gitarrenmusik Martin Kern - Am Wenger Egg
TTITLE15=Gitarrenmusik Martin Kern - Herbststimmung
EXTD=
EXTT0=
EXTT1=
EXTT2=
EXTT3=
EXTT4=
EXTT5=
EXTT6=
EXTT7=
EXTT8=
EXTT9=
EXTT10=
EXTT11=
EXTT12=
EXTT13=
EXTT14=
EXTT15=
PLAYORDER=
